<?xml version="1.0" encoding="iso-8859-1"?>
<!-- Generator: Adobe Illustrator 21.0.0, SVG Export Plug-In . SVG Version: 6.00 Build 0)  -->
<svg version="1.1" id="Capa_1" xmlns="http://www.w3.org/2000/svg" xmlns:xlink="http://www.w3.org/1999/xlink" x="0px" y="0px"
	 viewBox="0 0 512 512" style="enable-background:new 0 0 512 512;" xml:space="preserve">
<polyline style="fill:#FBDF97;" points="232.088,252.989 225.575,312.656 286.604,312.654 280.092,252.996 "/>
<polyline style="fill:#5A6B96;" points="402.504,438.963 402.504,376.754 109.496,376.754 109.496,438.963 "/>
<polyline style="fill:#404C6B;" points="266.999,438.963 79.859,438.963 79.859,502 432.141,502 432.141,438.963 349.667,438.963 
	"/>
<path d="M308.33,448.96c-0.65,0-1.311-0.06-1.95-0.19c-0.64-0.13-1.271-0.32-1.87-0.57c-0.61-0.25-1.19-0.56-1.729-0.92
	c-0.551-0.37-1.061-0.79-1.521-1.25c-1.86-1.86-2.93-4.43-2.93-7.07c0-0.65,0.069-1.31,0.2-1.95c0.13-0.64,0.319-1.27,0.569-1.87
	s0.561-1.19,0.92-1.73c0.36-0.55,0.78-1.06,1.24-1.52s0.97-0.88,1.521-1.24c0.539-0.36,1.119-0.67,1.729-0.92
	c0.6-0.25,1.23-0.44,1.87-0.57c3.25-0.66,6.7,0.41,9.02,2.73c0.46,0.46,0.881,0.97,1.25,1.52c0.36,0.54,0.67,1.13,0.92,1.73
	s0.44,1.23,0.57,1.87s0.19,1.3,0.19,1.95c0,2.64-1.061,5.21-2.931,7.07C313.54,447.89,310.97,448.96,308.33,448.96z"/>
<path style="fill:#FAD574;" d="M344.357,367.365c0-30.168-24.543-54.711-54.711-54.711l-67.112,0.001
	c-30.168,0-54.711,24.543-54.711,54.711v9.388l176.534-0.001V367.365z"/>
<path style="fill:#FFCD50;" d="M256.1,10.001V10H142.298l17.459,157.832c5.45,49.112,46.868,86.148,96.342,86.148v0.001
	c49.475,0,90.892-37.036,96.346-86.166l17.256-157.813H256.1V10.001z"/>
<polygon style="fill:#FBDF97;" points="256,171.05 223.227,182.704 224.184,147.934 202.973,120.367 236.336,110.532 256,81.84 
	275.664,110.532 309.027,120.367 287.816,147.934 288.773,182.704 "/>
<path d="M288.771,192.705c-1.127,0-2.259-0.19-3.35-0.578L256,181.664l-29.422,10.463c-3.106,1.105-6.56,0.606-9.229-1.332
	c-2.668-1.938-4.209-5.068-4.118-8.365l0.858-31.215l-19.043-24.749c-2.011-2.614-2.604-6.052-1.585-9.188
	c1.02-3.136,3.52-5.569,6.683-6.501l29.953-8.83l17.653-25.758c1.865-2.721,4.951-4.347,8.249-4.347
	c3.298,0,6.384,1.626,8.249,4.347l17.653,25.758l29.953,8.83c3.163,0.933,5.663,3.365,6.683,6.501
	c1.019,3.137,0.426,6.574-1.585,9.188l-19.043,24.749l0.858,31.215c0.091,3.297-1.45,6.427-4.118,8.365
	C292.918,192.053,290.855,192.705,288.771,192.705z M256,161.05c1.134,0,2.267,0.193,3.351,0.578l19.024,6.765l-0.555-20.184
	c-0.063-2.299,0.668-4.55,2.07-6.373l12.313-16.003l-19.368-5.709c-2.206-0.65-4.12-2.042-5.421-3.938L256,99.529l-11.415,16.656
	c-1.301,1.897-3.215,3.288-5.421,3.938l-19.368,5.709l12.313,16.003c1.402,1.823,2.134,4.074,2.07,6.373l-0.555,20.184l19.024-6.765
	C253.733,161.243,254.866,161.05,256,161.05z"/>
<path d="M432.141,428.963h-19.637v-52.209c0-5.523-4.478-10-10-10h-48.151c-0.311-33.397-26.05-60.829-58.751-63.828l-4.876-44.663
	c31.246-10.656,56.139-35.377,66.759-67.081c16.284-2.698,31.513-10.534,43.217-22.304c12.584-12.655,20.595-29.364,22.559-47.053
	l6.513-58.884c0.313-2.826-0.593-5.652-2.49-7.77c-1.896-2.119-4.605-3.329-7.449-3.329h-44.649l4.457-40.754
	c0.31-2.825-0.598-5.647-2.495-7.763c-1.896-2.115-4.604-3.324-7.445-3.324L142.298,0c-2.844,0-5.553,1.21-7.449,3.329
	c-1.897,2.118-2.803,4.944-2.49,7.771l4.507,40.743c0.004,0.039-0.004-0.039,0,0l0,0h-44.7c-2.844,0-5.553,1.21-7.449,3.329
	c-1.897,2.118-2.803,4.944-2.49,7.77l6.514,58.889c1.963,17.684,9.974,34.393,22.558,47.049
	c11.753,11.82,27.062,19.671,43.424,22.337c10.618,31.677,35.5,56.383,66.732,67.04l-4.876,44.671
	c-32.7,2.998-58.44,30.429-58.751,63.826h-48.33c-5.522,0-10,4.477-10,10v52.209H79.859c-5.522,0-10,4.477-10,10V502
	c0,5.523,4.478,10,10,10h352.281c5.522,0,10-4.477,10-10v-63.037C442.141,433.44,437.663,428.963,432.141,428.963z M408.668,71.843
	l-5.284,47.781c-1.467,13.208-7.455,25.692-16.862,35.153c-6.778,6.816-15.132,11.866-24.205,14.734
	c0.024-0.203,0.047-0.406,0.069-0.609L373,71.843C373,71.843,408.668,71.843,408.668,71.843z M125.479,154.777
	c-9.407-9.461-15.396-21.946-16.861-35.149l-5.285-47.785h35.746l10.74,97.092c0.024,0.214,0.048,0.427,0.073,0.641
	C140.738,166.719,132.308,161.645,125.479,154.777z M169.696,166.732L157.209,53.846h144.458c5.522,0,10-4.477,10-10
	s-4.478-10-10-10h-146.67L153.465,20l205.084,0.001l0,0l-16.043,146.71c-4.889,44.051-42.035,77.269-86.406,77.268
	C211.729,243.979,174.584,210.768,169.696,166.732z M256.1,263.981c5.092,0,10.106-0.356,15.018-1.045l4.336,39.718l-38.727,0.001
	l4.336-39.722C245.98,263.624,251.001,263.981,256.1,263.981z M222.534,322.656l67.111-0.001c24.449,0,44.378,19.727,44.707,44.099
	H177.827C178.157,342.382,198.085,322.656,222.534,322.656z M422.141,492H89.859v-43.037h177.14c5.522,0,10-4.477,10-10
	s-4.478-10-10-10H119.496v-42.209h273.008v42.209h-42.837c-5.522,0-10,4.477-10,10s4.478,10,10,10h72.474V492z"/>
<g>
</g>
<g>
</g>
<g>
</g>
<g>
</g>
<g>
</g>
<g>
</g>
<g>
</g>
<g>
</g>
<g>
</g>
<g>
</g>
<g>
</g>
<g>
</g>
<g>
</g>
<g>
</g>
<g>
</g>
</svg>
