<svg xmlns="http://www.w3.org/2000/svg" xmlns:xlink="http://www.w3.org/1999/xlink" viewBox="0 0 131 131">
  <defs>
    <style>
      .cls-1 {
        clip-path: url(#clip-logo);
      }

      .cls-2 {
        fill: #3e2723;
      }

      .cls-3 {
        fill: #b76035;
      }

      .cls-4 {
        fill: #a04c27;
      }

      .cls-5 {
        fill: #b7c1ca;
      }

      .cls-6 {
        fill: #6b6c8a;
      }

      .cls-7 {
        fill: #5d5f7a;
      }

      .cls-8 {
        fill: #ffdba9;
      }

      .cls-9 {
        fill: #ffc473;
      }

      .cls-10 {
        fill: #fff;
      }

      .cls-11 {
        fill: #e4e7e8;
      }
    </style>
    <clipPath id="clip-logo">
      <rect width="131" height="131"/>
    </clipPath>
  </defs>
  <g id="logo" class="cls-1">
    <g id="Group_896" data-name="Group 896" transform="translate(1163 4234)">
      <circle id="Ellipse_138" data-name="Ellipse 138" class="cls-2" cx="65.5" cy="65.5" r="65.5" transform="translate(-1163 -4234)"/>
      <rect id="Rectangle_391" data-name="Rectangle 391" class="cls-3" width="7.927" height="13.587" transform="matrix(-0.776, -0.631, 0.631, -0.776, -1120.401, -4133.305)"/>
      <rect id="Rectangle_392" data-name="Rectangle 392" class="cls-4" width="3.587" height="13.587" transform="matrix(-0.776, -0.631, 0.631, -0.776, -1123.77, -4136.042)"/>
      <path id="Path_1929" data-name="Path 1929" class="cls-3" d="M110.564,337.264,94.751,324.415a.817.817,0,0,1-.119-1.149l3.435-4.228a.816.816,0,0,1,1.149-.119l15.813,12.849a.817.817,0,0,1,.119,1.149l-3.435,4.228A.817.817,0,0,1,110.564,337.264Z" transform="translate(-1217.569 -4477.19)"/>
      <path id="Path_1930" data-name="Path 1930" class="cls-4" d="M96.43,325.78l-1.68-1.365a.817.817,0,0,1-.119-1.149l3.435-4.228a.816.816,0,0,1,1.149-.119l1.68,1.365Z" transform="translate(-1217.568 -4477.19)"/>
      <path id="Path_1931" data-name="Path 1931" class="cls-5" d="M179.293,61.208,219.3,11.969a.816.816,0,0,0,.177-.416L220.872.118,174.437,57.263Z" transform="translate(-1284.872 -4209.1)"/>
      <path id="Path_1932" data-name="Path 1932" class="cls-6" d="M143.675,53.2l40.01-49.239a.817.817,0,0,1,.371-.258L194.965,0,148.531,57.146Z" transform="translate(-1258.988 -4209.001)"/>
      <path id="Path_1933" data-name="Path 1933" class="cls-7" d="M143.674,53.2l1.98,1.609L185.5,5.774a.817.817,0,0,1,.371-.258l6.371-2.162L194.964,0,184.056,3.7a.818.818,0,0,0-.371.258Z" transform="translate(-1258.987 -4209)"/>
      <ellipse id="Ellipse_107" data-name="Ellipse 107" class="cls-8" cx="6.412" cy="6.412" rx="6.412" ry="6.412" transform="translate(-1119.09 -4155.51)"/>
      <path id="Path_1934" data-name="Path 1934" class="cls-9" d="M122.229,348.687a6.392,6.392,0,0,0,5.617,1.238,6.411,6.411,0,0,1,.008-12.428,6.412,6.412,0,0,0-5.625,11.19Z" transform="translate(-1238.95 -4492.809)"/>
      <ellipse id="Ellipse_108" data-name="Ellipse 108" class="cls-3" cx="5.435" cy="5.435" rx="5.435" ry="5.435" transform="translate(-1131 -4138.674)"/>
      <path id="Path_1935" data-name="Path 1935" class="cls-4" d="M46.764,453.106a5.435,5.435,0,0,0,6.114.508,5.439,5.439,0,0,1-1.78-10.086,5.436,5.436,0,0,0-4.333,9.578Z" transform="translate(-1175.757 -4582.128)"/>
      <path id="Path_2870" data-name="Path 2870" class="cls-10" d="M.905,7.2,12.811,0a12.171,12.171,0,0,1,1.946.4c3.108.92,7.6,3.559,11.372,10.907,2.991,5.833,1.887,10.828.913,15.234-.931,4.212-1.666,7.539,1.069,10.867a1.2,1.2,0,0,1,.191,1.18,1.162,1.162,0,0,1-.487.587,1.119,1.119,0,0,1-.427.149c-6.919.9-17.274-3.312-23.661-14.67C.827,19.5-.419,14.539.124,10.313A13.389,13.389,0,0,1,.905,7.2Zm11.668.778a2.293,2.293,0,0,0,1.186,1.305,8.227,8.227,0,0,1,4.768,5.3,2.275,2.275,0,0,0,1.867,1.857,2.186,2.186,0,0,0,.78-.013,2.337,2.337,0,0,0,1.8-2.733,12.9,12.9,0,0,0-7.349-8.665,2.225,2.225,0,0,0-3,1.165A2.393,2.393,0,0,0,12.574,7.977Z" transform="translate(-1095.839 -4178.385) rotate(172)"/>
      <path id="Path_2871" data-name="Path 2871" class="cls-4" d="M2.622.732A5.162,5.162,0,0,1,9.611,2.38C10.586,3.861,33.5,38.714,36.446,43.96a78.651,78.651,0,0,1,4.52,10.774l-11.905,7.2a77.24,77.24,0,0,1-6.86-9.452C19.216,47.174,1.3,9.413.536,7.808A5.513,5.513,0,0,1,2.622.732Z" transform="translate(-1058.563 -4125.64) rotate(172)"/>
      <path id="Path_2872" data-name="Path 2872" class="cls-3" d="M2.622.732C5.01-.7,35.335,58.139,35.335,58.139L29.06,61.933a77.24,77.24,0,0,1-6.86-9.452C19.216,47.174,1.3,9.413.536,7.808A5.513,5.513,0,0,1,2.622.732Z" transform="translate(-1058.563 -4125.64) rotate(172)"/>
      <rect id="Rectangle_565" data-name="Rectangle 565" class="cls-8" width="17" height="7" rx="3.5" transform="translate(-1110.994 -4176.982) rotate(-37)"/>
      <path id="Path_2883" data-name="Path 2883" class="cls-9" d="M122.229,348.687a6.392,6.392,0,0,0,5.617,1.238,6.411,6.411,0,0,1,.008-12.428,6.412,6.412,0,0,0-5.625,11.19Z" transform="translate(-1238.95 -4492.809)"/>
      <path id="Path_2884" data-name="Path 2884" class="cls-9" d="M121.142,343.677a6.593,6.593,0,0,0,4.37.728,7.59,7.59,0,0,1-1.969-1.073,2.782,2.782,0,0,1-.456-4.276,5.8,5.8,0,0,1,2.357-1.648c-1.269-.334-3.926.1-4.806,1.218A3.677,3.677,0,0,0,121.142,343.677Z" transform="translate(-1410.35 -4373.878) rotate(-37)"/>
      <path id="Path_2885" data-name="Path 2885" class="cls-11" d="M.905,7.2c7.57-4.293,5.676.176,6.345,4.815a40.84,40.84,0,0,0,2.2,7A22.014,22.014,0,0,0,15.279,28.7c4.666,4.6,10.1,5.38,12.832,8.708a1.2,1.2,0,0,1,.191,1.18,1.162,1.162,0,0,1-.487.587,1.119,1.119,0,0,1-.427.149c-6.919.9-17.274-3.312-23.661-14.67C.827,19.5-.419,14.539.124,10.313A13.389,13.389,0,0,1,.905,7.2Z" transform="translate(-1095.839 -4178.385) rotate(172)"/>
    </g>
  </g>
</svg>
